<svg width="40" height="40" viewBox="0 0 40 40" fill="none" xmlns="http://www.w3.org/2000/svg">
<path d="M9.375 23.75H11.875V33.75H9.375V23.75ZM15.625 23.75H18.125V33.75H15.625V23.75ZM21.875 23.75H24.375V33.75H21.875V23.75ZM28.125 23.75H30.625V33.75H28.125V23.75Z" fill="#F8F8F8"/>
<path d="M37.0063 13.125L30.7861 1.25H27.9639L34.1841 13.125H5.81586L12.0361 1.25H9.21391L2.99367 13.125H1.25V21.8334L4.59812 38.75H35.3998L38.75 21.9988V13.125H37.0063ZM36.25 21.7512L33.3502 36.25H6.65187L3.75 21.5884V21.25H36.25V21.7512ZM36.25 18.75H3.75V15.625H36.25V18.75Z" fill="#F8F8F8"/>
</svg>
