<svg width="75" height="75" viewBox="0 0 75 75" fill="none" xmlns="http://www.w3.org/2000/svg">
<g id="mdi-light:email">
<path id="Vector" d="M15.625 15.625H56.25C58.7364 15.625 61.121 16.6127 62.8791 18.3709C64.6373 20.129 65.625 22.5136 65.625 25V53.125C65.625 55.6114 64.6373 57.996 62.8791 59.7541C61.121 61.5123 58.7364 62.5 56.25 62.5H15.625C13.1386 62.5 10.754 61.5123 8.99587 59.7541C7.23772 57.996 6.25 55.6114 6.25 53.125V25C6.25 22.5136 7.23772 20.129 8.99587 18.3709C10.754 16.6127 13.1386 15.625 15.625 15.625ZM15.625 18.75C14.0625 18.75 12.6875 19.2812 11.625 20.2187L35.9375 35.9375L60.25 20.2187C59.1875 19.2812 57.8125 18.75 56.25 18.75H15.625ZM35.9375 39.7188L9.78125 22.75C9.53125 23.4375 9.375 24.2188 9.375 25V53.125C9.375 54.7826 10.0335 56.3723 11.2056 57.5444C12.3777 58.7165 13.9674 59.375 15.625 59.375H56.25C57.9076 59.375 59.4973 58.7165 60.6694 57.5444C61.8415 56.3723 62.5 54.7826 62.5 53.125V25C62.5 24.2188 62.3438 23.4375 62.0938 22.75L35.9375 39.7188Z" fill="#F8F8F8"/>
</g>
</svg>
