<svg width="40" height="40" viewBox="0 0 40 40" fill="none" xmlns="http://www.w3.org/2000/svg">
<path d="M19.9999 3.33337C10.7999 3.33337 3.33325 10.8 3.33325 20C3.33325 29.2 10.7999 36.6667 19.9999 36.6667C29.1999 36.6667 36.6666 29.2 36.6666 20C36.6666 10.8 29.1999 3.33337 19.9999 3.33337ZM27.7332 14.6667C27.4832 17.3 26.3999 23.7 25.8499 26.65C25.6166 27.9 25.1499 28.3167 24.7166 28.3667C23.7499 28.45 23.0166 27.7334 22.0833 27.1167C20.6166 26.15 19.7833 25.55 18.3666 24.6167C16.7166 23.5334 17.7833 22.9334 18.7333 21.9667C18.9833 21.7167 23.2499 17.8334 23.3333 17.4834C23.3448 17.4304 23.3433 17.3753 23.3288 17.323C23.3142 17.2708 23.2872 17.2228 23.2499 17.1834C23.1499 17.1 23.0166 17.1334 22.8999 17.15C22.7499 17.1834 20.4166 18.7334 15.8666 21.8C15.1999 22.25 14.5999 22.4834 14.0666 22.4667C13.4666 22.45 12.3333 22.1334 11.4833 21.85C10.4333 21.5167 9.61659 21.3334 9.68325 20.75C9.71659 20.45 10.1333 20.15 10.9166 19.8334C15.7833 17.7167 19.0166 16.3167 20.6333 15.65C25.2666 13.7167 26.2166 13.3834 26.8499 13.3834C26.9833 13.3834 27.2999 13.4167 27.4999 13.5834C27.6666 13.7167 27.7166 13.9 27.7332 14.0334C27.7166 14.1334 27.7499 14.4334 27.7332 14.6667Z" fill="#F8F8F8"/>
</svg>
