<svg width="75" height="75" viewBox="0 0 75 75" fill="none" xmlns="http://www.w3.org/2000/svg">
<g id="iconamoon:phone-light">
<path id="Vector" d="M60.9563 24.875C58.7275 33.5707 54.2026 41.5076 47.8551 47.8551C41.5076 54.2026 33.5707 58.7275 24.875 60.9563C18.1844 62.6594 12.5 56.9063 12.5 50V46.875C12.5 45.15 13.9031 43.7656 15.6188 43.5937C18.4641 43.3133 21.2572 42.6413 23.9187 41.5969L28.6687 46.3469C36.4029 42.6395 42.6395 36.4029 46.3469 28.6687L41.5969 23.9187C42.6424 21.2573 43.3154 18.4643 43.5969 15.6188C43.7656 13.9 45.15 12.5 46.875 12.5H50C56.9063 12.5 62.6594 18.1844 60.9563 24.875Z" stroke="#F8F8F8" stroke-width="1.5" stroke-linecap="round" stroke-linejoin="round"/>
</g>
</svg>
