<svg width="39" height="39" viewBox="0 0 39 39" fill="none" xmlns="http://www.w3.org/2000/svg">
<path d="M1.16675 32.7498C1.16675 30.4071 2.13252 28.1603 3.8516 26.5037C5.57069 24.8472 7.90226 23.9165 10.3334 23.9165H28.6667C31.0979 23.9165 33.4295 24.8472 35.1486 26.5037C36.8676 28.1603 37.8334 30.4071 37.8334 32.7498C37.8334 33.9212 37.3505 35.0446 36.491 35.8729C35.6314 36.7012 34.4657 37.1665 33.2501 37.1665H5.75008C4.53451 37.1665 3.36872 36.7012 2.50918 35.8729C1.64963 35.0446 1.16675 33.9212 1.16675 32.7498Z" stroke="#F8F8F8" stroke-width="2" stroke-linejoin="round"/>
<path d="M19.5 15.0833C23.297 15.0833 26.375 12.1171 26.375 8.45825C26.375 4.79937 23.297 1.83325 19.5 1.83325C15.703 1.83325 12.625 4.79937 12.625 8.45825C12.625 12.1171 15.703 15.0833 19.5 15.0833Z" stroke="#F8F8F8" stroke-width="2"/>
</svg>
